<?xml version="1.0" encoding="UTF-8"?>
<svg id="Layer_2" data-name="Layer 2" xmlns="http://www.w3.org/2000/svg" viewBox="0 0 753.47 753.47">
  <g id="Layer_1-2">
    <path d="M753.47,376.74c0,208.07-168.67,376.74-376.74,376.74S0,584.8,0,376.74,168.67,0,376.74,0s376.74,168.67,376.74,376.74ZM396.03,167.04c-1.78-1.64-.8-16-.97-19.54-1.56-32.2-.43-64.72-2.08-96.92-.46-9.05,2.38-27.27-7.77-31.23-8.84-3.45-22.12-1.53-23.95,9.43s-1.96,27.32-2.28,38.72c-.83,29.07,2.07,60.46.08,89.08-.11,1.59-1.14,10.48-2.54,10.44l-2.47-3.51-33.29-129.71c-3.69-11.9-26.48-10.02-26.84,2.74,5.14,40.11,15.53,80.22,20.93,120.17.73,5.43,1.58,10.82,1.16,16.33-2.3.58-1.64-.43-2.29-1.26-2.67-3.42-5.58-10.23-7.57-14.38-13.05-27.29-23.98-55.7-36.97-83.03-2.73-5.75-11.73-26.47-15.65-29.34-6.73-4.91-25.01,2.81-21.29,13.27,11.9,38.28,30.01,76.12,41.8,114.21.95,3.08,1.99,6.26,1.96,9.53-1.59,1.83-10-9.6-10.81-10.68-17.84-23.71-32.53-50.9-49.96-75.04-3.8-5.26-16.61-23.65-21.98-25.05-7.18-1.87-21.81,9.28-17.77,17.8,16.74,33.91,40.59,65.9,57.7,99.3,1.71,3.33,4.12,6.74,3.82,10.67-2.06.21-3.53-1.34-5.01-2.48-26.44-20.28-50.82-54.94-77.97-77.03-8.27-6.73-15.02-13.93-24.54-3.51-3.35,3.67-6.27,8.61-3.35,13.4,20.73,24.73,43.99,47.62,64.38,72.61,1.43,1.75,12.86,15.76,11.48,17.01-5.43.04-10.33-3.91-14.91-6.58-28.29-16.49-54.61-36.63-83.04-52.96-9.49-6.39-22.03,10.08-16.04,18.05l78.04,62.96c7.33,8.81-3.48,4.32-8.56,2.56-26.81-9.3-54.76-23.6-81.7-31.3-7.64-2.18-11.33-2.84-15.81,4.75-3.19,5.41-5.03,12.15.13,16.92,21.43,13.63,46,23.29,67.57,36.43,1.45.88,9.67,4.85,7.32,7.17-2.46.03-4.91.11-7.37-.12-24.32-2.34-50.94-9.66-75.14-10.86-7.9-.39-13.8-.63-15.81,8.17-2.33,10.22-.88,13.57,8.53,17.1,8.4,3.15,63.88,15.91,65.74,18.78l.05,2.92c-20.73,2.47-41.68,2.23-62.49,4.03-5.56.48-14.89.66-19.71,2.32-9.05,3.11-9.49,20.42,1.21,24.16,7.34,2.57,41.25,4.42,49.5,3.51,9.53-1.05,27.82-11.38,36.41-16.59,5.84-3.54,29.43-19.26,32.16-23.88s-5.53-10.83-5.93-15.21c-.12-1.31.52-1.63,1.45-2.28,6.41.79,23.56,11.67,25.34.39,1.3-8.23-3.99-13.7-3.93-21.43,2.85-2.88,20.76,14,26.07,6.57,4.08-5.71-3.72-19.62-2.07-26.57,3.57-3.69,29.59,28.77,26.98-.5-.32-3.62-5.65-16.16-.46-16.58,3.9-.32,26.61,25.43,27.4,6.5.23-5.58-8.27-29.54,4.54-19.39,5.38,4.26,11.98,15.2,19.84,12.77,6.15-1.9,2.73-19.95,3.69-25.3.26-1.45.8-2.64,2.5-2.55,4.1.04,14.1,17.07,19.03,18.03,13.58,2.65,6.89-19.94,10.66-26.29,1.78-3,2.74-1.94,4.66-.05,5.35,5.27,11.27,21.27,19.93,19.68,9.86-1.81,7.37-16.97,9.88-24.16.52-1.49.81-3.23,2.82-3.22,8.56,3.8,8.33,21.45,17.52,23.64,6.26,1.49,9.2-5.3,11.03-10.04,1.51-3.9,2.8-15.81,7.47-16.15,1.57.07,2.05.64,2.81,1.87,3.3,5.36,3.73,18.83,9.15,22.75,12.6,9.13,15.91-16.33,21.01-21.02,2.42-2.23,5.13-1.01,6.07,1.95,2.13,6.72-.14,23.5,10.17,24.86,9.39,1.24,17.35-22.94,22.67-21.73,6.27,1.42-2.99,30.83,12.07,27.91,5.12-.99,14.99-17.99,19.03-18.03,1.69-.09,2.24,1.09,2.5,2.55,1.37,7.65-4.74,30.01,9.96,24.94,3.62-1.25,17.34-17.82,20.03-15.45,2.53,6.43-5.04,23.89.42,28.09,7.43,5.71,21.13-13.46,25.99-12.04,1.5.44,1.63,1.96,1.57,3.32-.23,5.38-7.39,20.75-1.29,24.7,7.27,4.72,20.74-13.76,25.35-10.6,3.33,2.27-9.13,25.79.52,27.53,8.79,1.58,15.27-7.89,23.45-7.99.61,5.6-3.29,10.16-3.88,15.6-2.18,20.17,16.37,5.95,26.88,5.4.77,5.03-8.39,12.84-6.53,16.96,1.45,3.21,25.04,19.56,29.62,22.45,7.88,4.98,29.08,17.34,37.5,18.5,7.34,1.01,23.88-.32,31.9-.92,6.02-.45,15.79-.71,20.9-3.1,8.69-4.07,9.07-19.73.61-23.38-3.87-1.67-12.84-2.08-17.51-2.49-19.63-1.74-40.59-.89-59.99-3.01-2.27-.25-4.89-.68-6.48-2.5.07-3.41,58.27-17.35,65.19-19.79,5.62-1.98,11.84-3.82,11.7-11.09-.36-18.53-12.87-14.91-26.4-13.61-24.56,2.36-48.82,8.41-73.5,9.99-2.12-1.83,8.37-7.59,9.32-8.17,21.22-12.81,44.59-22.23,65.72-35.28,7.76-7.34-.77-26.63-12.09-23.1-26.29,8.56-51.5,20.17-77.44,29.57-3.84,1.39-12.3,4.92-15.73,5.34-3.72.46-3.62-2.24-1.3-4.37l77.5-61.49c5.21-5.66,3.37-10.6-1.01-15.96-5.87-7.19-8.94-6.62-16.64-2.69-29.91,15.25-59.19,41.82-89,57-1.18.6-5.94,3.21-6.33.65-.36-2.32,16.68-22.17,19.49-25.49,18.27-21.59,37.95-42.12,56.59-63.41,4.36-6.78-4.98-18.01-11.57-18.62-6.67-.62-11.13,4.19-15.98,8.07-10.44,8.36-22.3,20.43-32.05,29.95-14.41,14.06-31.5,35.95-46.45,47.55-1.56,1.21-3.46,3.52-5,.99l61.19-107.79c5.66-9.86-10.38-21.02-18.17-18.18-5.34,1.94-21.68,25.19-25.86,31.14-14.78,21.01-27.37,43.79-42.37,64.63-1.75,2.43-10.21,14.75-12.32,14.66-1.48-.06-1.15-1.99-1.05-3.01.28-3.09,2.49-8.27,3.54-11.49,12.11-36.92,28.3-72.92,39.95-110.08,2.67-10.11-14.74-16.94-21.48-12.44-2.91,1.94-12.02,21.95-14.31,26.68-16.18,33.45-29.14,68.56-46.64,101.34-3.12.07-.67-14.9-.34-17.32,5.23-39.17,15.99-78.76,20.93-118.15-.11-13.94-22.19-16.56-27.37-2.29-14.17,39.06-19.36,86.04-32,126-.3.94-1.65,7.69-3.71,5.78ZM356.81,231.34c-57.11,3.25-110.34,24.51-157.71,55.29-52.33,34-86.07,71.87-151.73,82.27-6.04.96-28.55.34-29.21,7.82,2.67,6.22,13.45,5.56,19.39,5.36,75.17-2.48,133.47-64.42,197.78-96.22,100.31-49.6,208.1-42.51,304.35,12.01,53.66,30.39,119.85,90.8,185.82,84.16,9.02-.91,14.52-7.17,4.35-10.33-8.35-2.6-22.5-2.29-32.05-3.95-60.74-10.59-103.11-56.51-153.48-87.52-57.28-35.26-119.7-52.75-187.51-48.9ZM355.43,333.92c0-20.03-16.24-36.27-36.27-36.27s-36.27,16.24-36.27,36.27,16.24,36.27,36.27,36.27,36.27-16.24,36.27-36.27ZM511.02,316.04c5.59,36.3,1.71,72.83-18.59,103.92-58.63,89.79-205.14,77.4-243.9-23.93-9.79-25.59-10.28-53.08-6.53-79.98-16.87,23.15-18.89,54.56-13,82-13.24-18.59-15.26-44.01-11.99-65.99-2.39-2-6.6,10.11-7.03,11.46-7.77,24.21-3.77,48.35,5.02,71.53l-7.8-10.69c-8.87-14.2-13.85-29.74-16.2-46.3-1.41-.24-1.45,1.77-1.7,2.77-16.2,65.88,84.42,116.7,135.49,129.94,61.57,15.96,122.3,1.51,175.52-30.91,36.71-22.36,73.08-53.69,63.69-101.8-2.41-.31-1.6-.03-2.1,1.39-1.82,5.09-2.09,11.93-3.61,17.39-3.78,13.62-10.79,27.77-20.27,38.22,8.8-21.51,12.73-46.76,5.93-69.44-1.31-4.37-3.54-10.51-6.93-13.56,1.3,16.7.64,33.87-4.55,49.96l-7.45,15.04c4.05-27.32,3.43-58.29-14-81ZM300.02,392.04c15.89,49.44,82.59,60.49,123.91,36.42,36.74-21.4,49.91-62.1,38.07-102.41l-3.64,26.84c-12.61,60.06-84.47,86.72-131.36,44.67-4.68-4.2-8.33-9.33-12.98-13.51,3.27,15.07,15.32,28.54,28.32,36.17,4.12,2.42,8.7,3.95,12.94,6.06,1.07.53,3.24,1.78.3,1.71-23.37-4.13-41.07-18-55.56-35.94ZM488.03,343.05c-6.62,40.77-32.16,81.58-72.03,96.48-72.77,27.19-139.62-24.18-151-96.48l-1.98,7.51c-3.79,79.15,79.34,128.4,151.21,106.21,46.2-14.26,79.16-58.35,75.82-107.26-.1-1.52-.22-5.94-2.03-6.46ZM693.01,388.05c-36.67-9.54-66.93,11.18-94.91,31.58-60.43,44.05-105.97,87.57-184.71,98.29-96.32,13.11-158.89-23.02-232.29-77.46-34.62-25.68-72.46-65.02-120.1-51.91,49.68,2.97,83.53,43.42,119,73.01,112.32,93.73,242.72,109.27,364.93,21.9,40.15-28.71,72.27-68.76,118.13-88.87l29.95-6.53ZM141.02,477.04c-.96-7.23,19.22-16.47,8.73-22.23-7.99-4.39-18.39.78-26.76-1.24l-.5-2.56c3.85-3.41,9.49-5.45,11.57-10.47,0-2.48-13.28-12.8-16.12-14.91-15.3-11.39-37.9-23.47-57.41-22.57-6.28.29-33.39,4.21-36.95,8.04-5.32,5.74-3.16,19.47,6.01,20.88,8.15,1.25,24.86-.49,33.98-.89,12.47-.55,25.53-3.02,38-2.09,1.79.13,3.23-.28,4.44,1.54-17.93,9.65-38.37,13.8-56.95,22.03-11.93,5.28-21.72,8.75-15.23,24.16,2.16,5.12,4.97,6.53,10.54,6.23,16.36-.87,44.71-11.02,62.47-14.61,5.33-1.08,10.66-2.58,16.18-2.31.25,1.51-.1,2.34-.93,3.56-2.16,3.17-32.69,21.06-38.79,25.21-5.97,4.06-29.8,19.31-31.07,24.94-.81,3.61.48,8.23,2.07,11.51,3.43,7.09,8.06,6.81,15,4.55,14.6-4.76,32.01-15.92,46.35-22.65,3.84-1.8,30.95-14.46,32.37-13.12l-2,5.49c-16.27,18.95-36.59,35.49-53.02,53.98-7.85,8.83-15.45,14.07-5.94,24.99,6.6,7.59,8.51,6.33,16.49,1.56,23.51-14.04,45.93-36.52,69.16-51.84,3.45-2.28,6.87-5.64,11.31-5.18,1.09.97-5.75,11.13-6.77,12.72-13.98,21.61-30.93,41.44-45.04,62.96-7.44,11.36-15.26,18.4-1.2,28.84,5.1,3.79,8.44,3.21,13.51-.53,19.69-14.47,42.57-46.87,60.48-65.52,1.43-1.49,12.41-13.27,14.02-11.47.47,4.08-1.65,7.72-3.14,11.35-12.58,30.76-33.33,60.13-45.64,91.37-2.71,7.13,6.79,14.62,12.73,15.88,7.12,1.51,11.08-5.71,14.47-10.69,17.28-25.42,30.87-57.3,49.36-81.64.97-1.27,5.18-8.34,7.22-6.27.55,4.06-.43,7.38-1.29,11.21-7.49,33.54-22.29,67.46-29.69,101.3-3.19,9.63,10.63,16.55,18.28,14.28,3.57-1.06,7.26-9.73,8.88-13.12,13.41-28.06,22.3-60.37,35.97-88.03.48-.98,4.89-10.84,6.85-8.64.3,5.49-.53,10.93-1.14,16.35-3.84,34.11-11.01,68.01-14.86,102.15-.18,10.21,15.64,15.69,22.54,9.52,1.68-1.5,2.69-4.4,3.51-6.49,12.66-32.52,17.11-74.16,28.23-107.77.69-1.77,1.2-4.14,3.73-3.76,1.86,1.34,1.21,27.28-.03,31.45,2.7,27.71-3.51,62.04.13,88.95.84,6.24,4.52,9.31,10.65,10.35,9.24,1.55,14.1-1.33,16.03-10.49,7.49-35.46,5.49-77.55,12.34-113.66.42-2.19.88-5.93,3.88-5.6,1.87,11.8,3.47,23.75,4.89,35.62,3.54,29.72,5.13,59.99,10.7,89.3,5.15,9.2,23.8,5.56,24.45-5.4-.57-34.67.66-69.4.02-104.07-.1-5.38-2.09-10.54-.04-16.45l3.73,2.76c10.45,34.5,16.3,72.22,27.77,106.23,1.15,3.42,2.29,8.38,5.76,10.24,6.92,3.72,20.35-1.2,20.56-9.7-4.1-34.79-10.61-69.4-14.68-104.17-.63-5.42-1.41-10.87-1.14-16.35,1.48-1.69,5.43,5.78,5.87,6.62,13.85,26.02,23.11,60.53,35.95,88.05,5.11,10.97,6.66,20.09,20.85,14.5,13.32-5.25,6.69-16.46,3.83-27.17-7.24-27.11-17.11-53.64-24.21-80.79-1.47-5.62-3.37-11.37-3.28-17.21,2.44-2.53,9.7,9.52,11.02,11.47,16.08,23.98,32.04,60.54,49.56,81.44,4.95,5.9,7.48,7.86,14.95,4.12,14.64-7.35,7.56-16.97,2.33-28.39-11.27-24.63-26.81-48.54-37.72-73.28-2.12-4.81-4.96-10.13-5.14-15.35,1.66-1.81,13.5,10.88,15.02,12.47,14.55,15.13,27.92,32.49,42.46,47.54,4.48,4.63,14.1,14.79,19.01,17.99,9.81,6.4,23.66-7.35,18.4-17.4-15.71-26.98-39.21-51.45-55.12-77.88-1.85-3.07-4.29-5.83-3.77-9.72,3.54-.15,6.49,2.35,9.31,4.18,23.96,15.54,48.46,40.97,72.77,54.23,4.33,2.36,6.56,4.23,11.15.6,1.6-1.27,6.76-7.99,7.3-9.99,1.64-6.1-1.84-9.19-5.51-13.55-15.84-18.9-38.18-36.41-54.54-55.46-1.14-1.32-6.76-7.75-5.48-9.01,5.18.13,9.98,2.82,14.67,4.82,22.49,9.57,43.85,22.01,66.31,31.68,9.78,4.58,17.61-9.45,15.07-17.03-1.97-5.88-19.41-16.57-25.33-20.7-14.41-10.05-29.48-19.22-44.24-28.76l-1.48-4.01c2.95-2.81,70.2,16.1,79.65,16.93,9.72.44,12.91-11.41,11.12-19.23-1.42-6.23-16.82-11.16-22.53-13.46-15.24-6.15-32.4-10.34-47.22-16.79-5.21-2.27-6.21-3.86.46-4.46,17.34-1.57,39.15,2.64,56.97,3.05,12.81.29,26.24,2.32,23.47-15.48-.67-4.34-3.03-6.57-6.96-8.03-7.77-2.88-32.05-6.15-40.19-5.25-17.14,1.89-37.04,13.14-50.67,23.33-2.84,2.12-13.54,10.02-14.64,12.41-1.93,4.17,7.5,8.73,10.03,11.98.84,1.07,2.25,1.21.52,2.51-9.59,2.29-20.78-4.2-28.95,3.13-3.94,5.9,14.42,16.81,10.93,20.35-6.83.96-29.29-8.6-30.84,1.73-.78,5.16,10.35,14.11,9.84,20.27-3.89,3.66-35.17-18.7-30.76,2.28.62,2.94,10.34,16.43,5.19,17.67-6.54-1.35-23.58-15.15-28.49-7.51-3.97,6.18,8.13,22.23,4.1,25.12-4.06,2.91-20.89-15.85-28.47-10.48-6,4.25,5.55,25.25-.12,26.91-3.72,1.09-17.59-15.18-23.79-14.72-12.16.91-1.91,27.16-7.18,28.72-4.09,1.22-16.15-17.59-22.04-17.98-12.79-.84-3.78,27.49-10.04,28.91-6.06,1.37-22.08-37.36-30.6-13.63-1.43,3.98-2.11,26.15-8.84,18.98-4.58-4.88-7.79-21.49-15.55-22.27-10.89-1.1-11.44,17.34-15.18,23.72-1.63,2.78-4.06,3.55-6.13.68-4.88-6.78-3.17-27.15-16.37-24.21-5.83,1.3-12.86,22.3-15.38,22.86-1.02.23-2.44,0-3.36-.55-4.93-2.94.76-29.61-14.26-26.32-5.94,1.3-15.37,20.56-19.38,20.69-1.36.31-1.65-.64-2.17-1.56-3.67-6.46,2.97-25.32-6.93-27.18-7.73-1.45-17.88,19.52-23.65,17.81-5.18-1.54,4.41-22.87-4.24-27.84-7.97-4.58-22.05,15.27-26.81,13.88-5.45-1.6,6.41-22.32-.13-26.91-7.6-5.33-24.77,13.44-28.42,10.92-2.53-6.07,9.66-23.57,3.01-27.51-6.11-3.62-21.13,7.71-27.49,9.51-4.83-.93,4.39-14.87,5.03-17.94.52-2.47,1.24-5.49-.53-7.59-4.9-4.98-19.36,4-24.97,5.1-2.39.47-5.66,1.01-4.64-2.64,1.4-4.98,13.99-15.24,7.66-20.52-5.61-4.68-21.79,2.46-29.07,1.58Z"/>
  </g>
</svg>